<?xml version="1.0" encoding="UTF-8" standalone="no"?>
<svg
   version="1.0"
   x="0px"
   y="0px"
   viewBox="0 0 160 80"
   enable-background="new 0 0 100 100"
   xml:space="preserve"
   id="svg3"
   sodipodi:docname="DiffPaSS_logo_text.svg"
   width="960pt"
   height="480pt"
   inkscape:version="1.3 (0e150ed, 2023-07-21)"
   inkscape:export-filename="DiffPaSS_logo_text.png"
   inkscape:export-xdpi="96"
   inkscape:export-ydpi="96"
   xmlns:inkscape="http://www.inkscape.org/namespaces/inkscape"
   xmlns:sodipodi="http://sodipodi.sourceforge.net/DTD/sodipodi-0.dtd"
   xmlns="http://www.w3.org/2000/svg"
   xmlns:svg="http://www.w3.org/2000/svg"><defs
     id="defs3" /><sodipodi:namedview
     id="namedview3"
     pagecolor="#ffffff"
     bordercolor="#999999"
     borderopacity="1"
     inkscape:showpageshadow="0"
     inkscape:pageopacity="0"
     inkscape:pagecheckerboard="0"
     inkscape:deskcolor="#d1d1d1"
     inkscape:zoom="0.9555305"
     inkscape:cx="640.48191"
     inkscape:cy="338.55539"
     inkscape:window-width="1728"
     inkscape:window-height="996"
     inkscape:window-x="0"
     inkscape:window-y="38"
     inkscape:window-maximized="0"
     inkscape:current-layer="svg3"
     inkscape:document-units="pt" /><path
     d="m 58.755432,50.006471 c 0,0 -49.5809322,-7.4765 -24.790468,-14.166002 0,0 -45.645934,7.476503 -18.887973,14.953007 26.757964,7.476502 52.728931,14.559503 22.42947,21.249002 0,0 83.028389,-10.230998 21.248971,-22.036007 z"
     id="path1"
     sodipodi:nodetypes="ccscc"
     style="fill:#248200;fill-opacity:1;stroke-width:0.987369" /><path
     d="M 96.145121,45.677972 C 89.849127,41.742971 78.831141,29.937967 72.928648,16.165464 67.026156,2.3929614 65.84566,5.1474604 59.156171,14.591463 c -6.68949,9.444003 -5.115495,13.772503 -11.017983,7.083003 -5.902489,-6.689503 -7.476491,13.379005 -7.476491,13.379005 0,0 -23.216469,5.115499 19.281471,11.4115 28.273357,4.188628 32.337427,6.461434 31.890652,7.513588 3.079549,-1.563914 9.14435,-5.279878 4.311301,-8.300587 z"
     id="path2"
     style="fill:#b3b3b3;fill-opacity:1;stroke-width:0.987369" /><path
     d="m 37.535069,50.687375 12.682633,-1.807016 c -22.755317,15.939978 -40.4240373,26.438708 -9.62291,22.684077 0,0 -57.410301,10.778444 -3.059723,-20.877061 z"
     id="path1-0"
     sodipodi:nodetypes="cccc"
     style="fill:#248200;fill-opacity:1;stroke-width:0.987369" /><g
     id="text1"
     style="font-size:14.1667px;line-height:1.25;font-family:'Times New Roman';-inkscape-font-specification:'Times New Roman, ';stroke-width:0.987369"
     aria-label="DiffPaSS"><path
       style="font-weight:bold;font-family:Oswald;-inkscape-font-specification:'Oswald Bold';fill:#248200"
       d="M 105.50084,44.647171 V 33.172144 h 2.90417 q 1.50167,0 2.3375,0.382501 0.83584,0.368334 1.17584,1.175836 0.34,0.793335 0.34,2.068338 v 4.16501 q 0,1.28917 -0.34,2.110838 -0.34,0.807502 -1.17584,1.190003 -0.82166,0.382501 -2.30917,0.382501 z m 2.53583,-1.756671 h 0.39667 q 0.58084,0 0.83584,-0.17 0.255,-0.170001 0.31166,-0.510001 0.0708,-0.340001 0.0708,-0.850002 v -5.000846 q 0,-0.510001 -0.085,-0.821668 -0.0708,-0.311668 -0.32584,-0.453335 -0.255,-0.141667 -0.82166,-0.141667 h -0.38251 z m 5.6525,1.756671 v -8.188353 h 2.30917 v 8.188353 z m -0.0142,-9.576689 v -1.600838 h 2.32334 v 1.600838 z m 4.05167,9.576689 v -6.630016 h -0.77917 v -1.558337 h 0.77917 V 35.84965 q 0,-0.722502 0.14166,-1.260836 0.15584,-0.538335 0.62334,-0.835836 0.48167,-0.2975 1.47334,-0.2975 0.26916,0 0.52416,0.01417 0.26917,0.01417 0.58084,0.05667 v 1.714171 q -0.0992,-0.02833 -0.24084,-0.0425 -0.1275,-0.02833 -0.255,-0.02833 -0.255,0 -0.39666,0.155834 -0.14167,0.141667 -0.14167,0.481668 v 0.651668 h 1.03417 v 1.558337 h -1.03417 v 6.630016 z m 4.08001,0 v -6.630016 h -0.77917 v -1.558337 h 0.77917 V 35.84965 q 0,-0.722502 0.14166,-1.260836 0.15584,-0.538335 0.62334,-0.835836 0.48167,-0.2975 1.47334,-0.2975 0.26916,0 0.52416,0.01417 0.26917,0.01417 0.58084,0.05667 v 1.714171 q -0.0992,-0.02833 -0.24084,-0.0425 -0.1275,-0.02833 -0.255,-0.02833 -0.255,0 -0.39666,0.155834 -0.14167,0.141667 -0.14167,0.481668 v 0.651668 h 1.03417 v 1.558337 h -1.03417 v 6.630016 z"
       id="path8" /><path
       style="font-weight:bold;font-family:Oswald;-inkscape-font-specification:'Oswald Bold';fill:#326464"
       d="M 126.17002,44.647171 V 33.172144 h 3.85334 q 1.03417,0 1.70001,0.396667 0.66583,0.382501 0.99166,1.133336 0.32584,0.736669 0.32584,1.799171 0,1.33167 -0.43917,2.040005 -0.43917,0.694168 -1.19,0.963336 -0.75084,0.269167 -1.68584,0.269167 h -1.02 v 4.873345 z m 2.53584,-6.644182 h 0.85 q 0.4675,0 0.70834,-0.170001 0.24083,-0.17 0.31166,-0.510001 0.085,-0.340001 0.085,-0.864169 0,-0.439168 -0.0708,-0.765002 -0.0567,-0.34 -0.2975,-0.538334 -0.24084,-0.198334 -0.75084,-0.198334 h -0.83583 z m 6.36083,6.785849 q -0.62334,0 -1.04834,-0.297501 -0.425,-0.2975 -0.6375,-0.750835 -0.2125,-0.467501 -0.2125,-0.949169 0,-0.765002 0.2975,-1.289169 0.31167,-0.524168 0.8075,-0.878336 0.49583,-0.354167 1.09084,-0.595001 0.595,-0.255001 1.17583,-0.453335 v -0.821668 q 0,-0.212501 -0.0425,-0.368335 -0.0425,-0.17 -0.14166,-0.255 -0.0992,-0.09917 -0.29751,-0.09917 -0.19833,0 -0.31166,0.085 -0.0992,0.085 -0.14167,0.240834 -0.0425,0.141667 -0.0567,0.325834 l -0.0567,0.595002 -2.15334,-0.085 q 0.0708,-1.473336 0.77917,-2.167505 0.7225,-0.708335 2.15333,-0.708335 1.24667,0 1.85584,0.694169 0.62334,0.680001 0.62334,1.770837 v 3.825009 q 0,0.510001 0.0142,0.892502 0.0283,0.382501 0.0567,0.665835 0.0425,0.283334 0.0708,0.481668 h -2.06833 q -0.0425,-0.325834 -0.0992,-0.708335 -0.0567,-0.382501 -0.085,-0.453334 -0.14167,0.510001 -0.53834,0.906668 -0.3825,0.396668 -1.03416,0.396668 z m 0.82166,-1.558337 q 0.14167,0 0.255,-0.05667 0.1275,-0.05667 0.22667,-0.155834 0.0992,-0.09917 0.17,-0.198333 v -2.238339 q -0.28333,0.17 -0.52417,0.354168 -0.24083,0.17 -0.41083,0.3825 -0.17,0.212501 -0.26917,0.467502 -0.085,0.240833 -0.085,0.552501 0,0.410834 0.17,0.651668 0.17,0.240834 0.4675,0.240834 z m 7.40918,1.58667 q -1.07667,0 -1.79917,-0.3825 -0.72251,-0.382501 -1.09084,-1.175837 -0.36833,-0.807502 -0.41083,-2.082505 l 2.1675,-0.325834 q 0.0142,0.736669 0.1275,1.190003 0.1275,0.453335 0.34,0.651668 0.22667,0.198334 0.53834,0.198334 0.39666,0 0.51,-0.269167 0.1275,-0.269167 0.1275,-0.566668 0,-0.708335 -0.34,-1.190003 -0.34,-0.495834 -0.92084,-0.991669 l -0.99167,-0.864169 q -0.65167,-0.552501 -1.105,-1.246669 -0.43917,-0.708335 -0.43917,-1.742505 0,-1.45917 0.86417,-2.224171 0.86417,-0.779169 2.35167,-0.779169 0.92084,0 1.47334,0.311667 0.56667,0.311668 0.85,0.821669 0.2975,0.495835 0.39667,1.062503 0.11333,0.552501 0.1275,1.062502 l -2.18167,0.269167 q -0.0142,-0.510001 -0.0708,-0.878335 -0.0425,-0.382501 -0.19833,-0.580835 -0.15583,-0.2125 -0.48167,-0.2125 -0.35416,0 -0.52417,0.2975 -0.15583,0.297501 -0.15583,0.595002 0,0.637501 0.2975,1.048336 0.31167,0.396667 0.8075,0.835835 l 0.94917,0.835835 q 0.75084,0.637502 1.26084,1.445004 0.52417,0.807502 0.52417,1.997505 0,0.807501 -0.36834,1.473336 -0.36833,0.651669 -1.04833,1.03417 -0.66584,0.3825 -1.58667,0.3825 z m 7.04084,0 q -1.07667,0 -1.79917,-0.3825 -0.7225,-0.382501 -1.09084,-1.175837 -0.36833,-0.807502 -0.41083,-2.082505 l 2.1675,-0.325834 q 0.0142,0.736669 0.1275,1.190003 0.1275,0.453335 0.34001,0.651668 0.22666,0.198334 0.53833,0.198334 0.39667,0 0.51,-0.269167 0.1275,-0.269167 0.1275,-0.566668 0,-0.708335 -0.34,-1.190003 -0.34,-0.495834 -0.92083,-0.991669 l -0.99167,-0.864169 q -0.65167,-0.552501 -1.10501,-1.246669 -0.43916,-0.708335 -0.43916,-1.742505 0,-1.45917 0.86416,-2.224171 0.86417,-0.779169 2.35168,-0.779169 0.92083,0 1.47333,0.311667 0.56667,0.311668 0.85001,0.821669 0.2975,0.495835 0.39666,1.062503 0.11334,0.552501 0.1275,1.062502 l -2.18167,0.269167 q -0.0142,-0.510001 -0.0708,-0.878335 -0.0425,-0.382501 -0.19834,-0.580835 -0.15583,-0.2125 -0.48166,-0.2125 -0.35417,0 -0.52417,0.2975 -0.15583,0.297501 -0.15583,0.595002 0,0.637501 0.2975,1.048336 0.31166,0.396667 0.8075,0.835835 l 0.94917,0.835835 q 0.75083,0.637502 1.26083,1.445004 0.52417,0.807502 0.52417,1.997505 0,0.807501 -0.36833,1.473336 -0.36834,0.651669 -1.04834,1.03417 -0.66583,0.3825 -1.58667,0.3825 z"
       id="path9" /></g><path
     style="fill:#326464;stroke:#000000;stroke-width:0;stroke-miterlimit:0"
     d="m 37.112755,35.778006 c -3.146073,0.481466 -6.551184,1.04546 -9.085607,3.108038 -0.785487,0.553622 -0.696404,1.574905 0.06366,2.106116 2.939729,2.458716 6.818676,3.265867 10.389463,4.387137 11.310986,3.233142 23.155216,4.097618 34.389304,7.630414 2.999421,1.115854 6.457397,1.980119 8.573402,4.555118 0.664598,0.885588 0.622936,2.145574 0.0046,3.043111 3.325289,-2.122798 6.746788,-4.141557 9.938573,-6.45372 0.197089,-0.778114 -1.127912,-1.025198 -1.626153,-1.334622 C 82.617676,50.352093 75.035714,49.382924 67.609032,48.054737 57.924454,46.359965 48.012866,45.43835 38.658685,42.254217 36.98377,41.492335 34.615784,40.910143 34.008517,38.939089 33.89655,37.199363 35.903541,36.398187 37.197178,35.768671 Z"
     id="path6" /><path
     style="fill:#326464;stroke:#000000;stroke-width:0;stroke-miterlimit:0"
     d="m 34.941715,36.546103 c -2.512142,0.554938 -5.386096,1.146486 -7.071581,3.265902 0.104992,1.031303 1.451172,1.478638 2.215598,2.019971 5.847418,2.969628 12.397807,4.164047 18.755572,5.518297 9.592978,2.04389 19.505173,3.207584 28.619368,7.012861 1.967481,0.976982 4.629246,2.144903 4.855213,4.639863 -0.352651,1.13901 0.60888,0.171199 1.113103,-0.0645 2.469262,-1.64632 5.214339,-3.267489 7.397493,-5.133102 -3.537903,-1.6859 -7.477277,-2.343787 -11.278661,-3.204934 -12.468132,-2.619576 -25.236318,-3.71891 -37.590114,-6.92038 -2.748154,-0.892826 -5.936936,-1.512678 -7.897392,-3.814179 -0.932807,-1.147792 -0.09404,-2.649905 0.989189,-3.332103 z"
     id="path7" /></svg>
